ffprobe version N-93077-g075fd5ba45 Copyright (c) 2007-2019 the FFmpeg developers
  built with Apple LLVM version 9.0.0 (clang-900.0.39.2)
  configuration: 
  libavutil      56. 26.100 / 56. 26.100
  libavcodec     58. 46.100 / 58. 46.100
  libavformat    58. 26.100 / 58. 26.100
  libavdevice    58.  6.101 / 58.  6.101
  libavfilter     7. 48.100 /  7. 48.100
  libswscale      5.  4.100 /  5.  4.100
  libswresample   3.  4.100 /  3.  4.100
[mov,mp4,m4a,3gp,3g2,mj2 @ 0x7fdc08000a00] decoding for stream 0 failed
Input #0, mov,mp4,m4a,3gp,3g2,mj2, from 'GOPTEST.mp4':
  Metadata:
    major_brand     : isom
    minor_version   : 512
    compatible_brands: isomiso2avc1mp41
    encoder         : Lavf58.26.100
  Duration: 00:00:17.42, start: 0.000000, bitrate: 2126 kb/s
    Stream #0:0(eng): Video: h264 (Constrained Baseline) (avc1 / 0x31637661), yuv420p, 2560x1440, 2040 kb/s, 29.97 fps, 29.97 tbr, 30k tbn, 59.94 tbc (default)
    Metadata:
      handler_name    : VideoHandler
    Stream #0:1(eng): Audio: aac (mp4a / 0x6134706D), 48000 Hz, stereo, fltp, 128 kb/s (default)
    Metadata:
      handler_name    : SoundHandler
GOP: PPPPPPPPPPPPPPPPPPPPPPPPPPPP 28 OPEN
GOP: IPPPPPPPPPPPPPPPPPPPPPPPPPPPPPPPPPPPPPPPPPPPPPPPPPPPPPPPPPPPPPPPPPPPPPPPPPPPPPPPPPPPPPPPPPPPPPPPPPPPPPPPPPPPPPPPPPPPPPPPPPPPPPPPPPPPPPPPPPPPPPPPPPPPPPPPPPPPPPPPPPPPPPPPPPPPPPPPPPPPPPPPPPPPPPPPPPPPPPPPPPPPPPPPPPPPPPPPPPPPPPPPPPPPPPPPPPPPPPPPPPPPPPPPPP 250 CLOSED
GOP: IPPPPPPPPPPPPPPPPPPPPP 22 CLOSED
